<svg xmlns="http://www.w3.org/2000/svg" version="1.1" xmlns:xlink="http://www.w3.org/1999/xlink" xmlns:svgjs="http://svgjs.dev/svgjs" width="1500" height="1890" viewBox="0 0 1500 1890"><g transform="matrix(1,0,0,1,-1.2031551385277908,0.7651821862348243)"><svg viewBox="0 0 196 247" data-background-color="#02044b" preserveAspectRatio="xMidYMid meet" height="1890" width="1500" xmlns="http://www.w3.org/2000/svg" xmlns:xlink="http://www.w3.org/1999/xlink"><g id="tight-bounds" transform="matrix(1,0,0,1,0.15721227143430383,-0.09999999999999432)"><svg viewBox="0 0 195.6855754571314 247.2" height="247.2" width="195.6855754571314"><g><svg viewBox="0 0 395.52 499.6410377801143" height="247.2" width="195.6855754571314"><g transform="matrix(1,0,0,1,0,367.4243520658286)"><svg viewBox="0 0 395.52 132.21668571428572" height="132.21668571428572" width="395.52"><g id="textblocktransform"><svg viewBox="0 0 395.52 132.21668571428572" height="132.21668571428572" width="395.52" id="textblock"><g><svg viewBox="0 0 395.52 132.21668571428572" height="132.21668571428572" width="395.52"><g transform="matrix(1,0,0,1,0,0)"><svg width="395.52" viewBox="-1.85 -16.45 52.5 17.55" height="132.21668571428572" data-palette-color="#ffffff"><path d="M11.8 0.1L11.8 0.1Q10.6 0.1 10.6-1.25L10.6-1.25Q11.15-4.05 12.85-7.55L12.85-7.55Q13.65-9.25 14.48-10.9 15.3-12.55 16.1-14.25L16.1-14.25Q14.25-13 12.4-11.48 10.55-9.95 8.8-8.05L8.8-8.05Q6.75-5.85 4.05-2.4L4.05-2.4Q2.1 0.05 1.8 0.05L1.8 0.05Q1.1 0.05 0.65-0.6 0.2-1.25 0.2-1.7L0.2-1.7Q0.2-2.35 1.35-5.05L1.35-5.05Q1.7-5.9 2.08-6.73 2.45-7.55 2.8-8.35L2.8-8.35-0.2-5.2Q-0.3-5.1-0.8-4.6-1.3-4.1-1.6-4.1L-1.6-4.1Q-1.85-4.1-1.85-4.45L-1.85-4.45Q-1.85-4.55-1.78-4.73-1.7-4.9-1.45-5.15L-1.45-5.15Q-0.7-5.9 0.1-6.75 0.9-7.6 1.75-8.7L1.75-8.7Q2.4-9.55 3.63-11.23 4.85-12.9 6.65-15.45L6.65-15.45Q7.2-16.2 8.2-16.2L8.2-16.2Q9.2-16.2 9.2-15.25L9.2-15.25Q9.2-14.9 6.65-10.6L6.65-10.6Q5.35-8.3 4.58-6.85 3.8-5.4 3.6-4.7L3.6-4.7Q4.7-5.9 6.23-7.4 7.75-8.9 9.75-10.75L9.75-10.75Q15.9-16.45 17.85-16.45L17.85-16.45Q18.4-16.45 18.93-16.1 19.45-15.75 19.45-15.2L19.45-15.2Q19.45-14.95 17.5-11.55L17.5-11.55Q15.6-8.1 15.4-7.45L15.4-7.45Q20.95-12.1 20.95-12.15L20.95-12.15Q25.65-15.8 27.7-15.8L27.7-15.8Q28.3-15.8 28.83-15.43 29.35-15.05 29.35-14.55L29.35-14.55Q29.35-14.45 26.15-10.35L26.15-10.35Q22.85-6.2 22.45-3.55L22.45-3.55Q22.25-1.75 24.3-1.75L24.3-1.75Q25.55-1.75 27.8-3.35 30.05-4.95 32.5-7.75L32.5-7.75Q32.8-8.1 33.15-8.43 33.5-8.75 33.75-8.75L33.75-8.75Q34.05-8.75 34.05-8.5L34.05-8.5Q34.05-8.15 33.6-7.7L33.6-7.7Q32.3-6.15 30.53-4.5 28.75-2.85 27-1.73 25.25-0.6 23.9-0.6L23.9-0.6Q20.5-0.6 20.5-3.75L20.5-3.75Q20.5-4.85 21.1-6.33 21.7-7.8 22.3-9L22.3-9Q23.75-11.8 25.45-13.95L25.45-13.95Q23.85-13.15 22.13-11.85 20.4-10.55 18.55-8.8L18.55-8.8Q14.25-4.6 12.65-0.3L12.65-0.3Q12.4 0.1 11.8 0.1ZM43.1 1.1L43.1 1.1Q41.65 1.1 40.22 0.8 38.8 0.5 37.65-0.15L37.65-0.15Q37.3-0.35 36.62-0.8 35.95-1.25 34.9-2.05L34.9-2.05Q34.1-1.5 33.4-1.07 32.7-0.65 32.05-0.65L32.05-0.65Q30.9-0.65 30.9-1.9L30.9-1.9Q30.9-2.3 31.17-2.98 31.45-3.65 31.8-3.65L31.8-3.65Q32.05-3.65 32.05-3.3L32.05-3.3Q32.05-3.05 32-2.9L32-2.9Q32-2.85 31.97-2.78 31.95-2.7 31.95-2.65L31.95-2.65Q31.95-2.15 32.45-2.15L32.45-2.15Q33.1-2.15 33.9-2.75L33.9-2.75 32-4.2Q31.9-4.3 31.9-4.45L31.9-4.45Q31.9-4.8 32.4-5.28 32.9-5.75 33.3-5.75L33.3-5.75Q33.45-5.75 35.6-4.05L35.6-4.05Q37.6-6.3 39.75-8.5L39.75-8.5Q41.35-10.2 42.57-11.4 43.8-12.6 44.7-13.25L44.7-13.25Q40.75-14.45 38.85-14.45L38.85-14.45Q37.65-14.45 36.9-13.93 36.15-13.4 36.15-12.6L36.15-12.6Q36.15-11.95 36.85-11.4L36.85-11.4Q37.25-11.1 37.25-10.9L37.25-10.9Q37.25-10.6 37-10.6L37-10.6Q36.5-10.6 35.65-11.6L35.65-11.6Q34.85-12.6 34.85-13.65L34.85-13.65Q34.85-14.7 35.62-15.25 36.4-15.8 37.55-16 38.7-16.2 39.8-16.2L39.8-16.2Q41.4-16.2 43.3-15.6 45.2-15 47.05-14.4L47.05-14.4Q47.75-14.8 48.55-14.8L48.55-14.8Q50.65-14.8 50.65-13.55L50.65-13.55Q50.65-13.05 50.02-12.63 49.4-12.2 48.5-12.2L48.5-12.2Q47.55-12.2 46.8-12.55L46.8-12.55Q42.1-9.65 36.6-3.25L36.6-3.25 38.4-1.85Q39.55-1 40.92-0.73 42.3-0.45 43.65-0.45L43.65-0.45Q45.85-0.45 47.4-1.25 48.95-2.05 48.95-3.65L48.95-3.65Q48.95-4.3 48.75-4.75L48.75-4.75Q48.65-5.05 48.65-5.1L48.65-5.1Q48.65-5.45 49.15-5.45L49.15-5.45Q49.4-5.45 49.5-5.2L49.5-5.2Q49.9-4.3 49.9-3.5L49.9-3.5Q49.9-1.5 48.02-0.2 46.15 1.1 43.1 1.1Z" opacity="1" transform="matrix(1,0,0,1,0,0)" fill="#ffffff" class="wordmark-text-0" data-fill-palette-color="primary" id="text-0"></path></svg></g></svg></g></svg></g></svg></g><g transform="matrix(1,0,0,1,36.807488502893534,0)"><svg viewBox="0 0 321.9050229942129 336.2111657691429" height="336.2111657691429" width="321.9050229942129"><g><svg xmlns="http://www.w3.org/2000/svg" xmlns:xlink="http://www.w3.org/1999/xlink" version="1.1" x="0" y="0" viewBox="31 21 450.001 470" style="enable-background:new 0 0 512 512;" xml:space="preserve" height="336.2111657691429" width="321.9050229942129" class="icon-icon-0" data-fill-palette-color="accent" id="icon-0"><g fill="#00d1cd" data-fill-palette-color="accent"><g fill="#00d1cd" data-fill-palette-color="accent"><g fill="#00d1cd" data-fill-palette-color="accent"><path d="M255.767 329.133c-66.024 0-128.155-9.599-170.461-26.334-5.126-2.027-7.644-7.821-5.63-12.953 0.29-0.738 1.172-2.984 1.172-4.415 0-5.479-4.5-9.937-10.032-9.937-3.176 0-6.069 1.638-7.938 4.494-1.575 2.407-4.112 4.021-6.961 4.425-2.85 0.403-5.735-0.438-7.919-2.312C36.878 272.561 31 261.4 31 249.829c0-51.51 115.806-79.304 224.767-79.304 71.681 0 137.02 10.874 179.263 29.832 2.474 1.11 4.391 3.178 5.312 5.728 0.92 2.551 0.766 5.366-0.429 7.8-0.196 0.4-0.375 1.243-0.375 1.767 0 2.076 1.575 3.766 3.511 3.766 1.126 0 2.119-0.523 2.656-1.399 1.473-2.402 3.892-4.071 6.659-4.597 2.77-0.527 5.63 0.142 7.881 1.837 17.155 12.92 20.756 25.931 20.756 34.57 0 23.612-24.208 43.873-70.008 58.591C369.429 321.776 314.302 329.133 255.767 329.133zM100.778 287.227c39.742 13.971 95.552 21.906 154.988 21.906 56.514 0 109.467-7.016 149.106-19.754 34.62-11.126 56.127-26.28 56.127-39.55 0-4.858-2.989-9.45-6.692-13.276-3.368 1.855-7.219 2.864-11.26 2.864-12.964 0-23.511-10.661-23.511-23.766 0-0.043 0-0.087 0-0.13-39.549-15.72-99.894-24.996-163.771-24.996C128.9 190.525 51 225.066 51 249.829c0 3.823 1.615 7.387 3.825 10.475 4.708-3.099 10.235-4.81 15.99-4.81 16.561 0 30.032 13.43 30.032 29.937C100.848 286.037 100.823 286.637 100.778 287.227z" fill="#00d1cd" data-fill-palette-color="accent"></path></g><g fill="#00d1cd" data-fill-palette-color="accent"><path d="M255.302 479.133c-0.085 0-0.17-0.001-0.256-0.003-23.004-0.586-42.732-25.429-57.053-71.843-13.055-42.312-20.244-98.231-20.244-157.458 0-79.792 13.68-154.385 35.7-194.67 2.596-4.747 8.494-6.569 13.314-4.114 0.917 0.467 2.067 0.787 2.489 0.81 1.895-0.001 3.47-1.69 3.47-3.767 0-1.258-0.434-2.148-0.666-2.345-2.237-1.9-3.527-4.688-3.527-7.623s1.29-5.723 3.528-7.623C239.584 24.106 247.339 21 255.767 21c23.321 0 43.277 24.571 57.71 71.058 13.096 42.18 20.308 98.21 20.308 157.771 0 91.059-16.251 170.233-42.41 206.628-1.722 2.396-4.414 3.908-7.355 4.134-2.936 0.228-5.832-0.858-7.9-2.965-1.077-1.098-2.765-1.753-4.512-1.753-4.53 0-7.237 3.846-7.237 7.563 0 0.69 0.342 2.084 0.644 3.313 0.742 3.026 0.031 6.227-1.923 8.654C261.189 477.765 258.323 479.133 255.302 479.133zM227.433 71.773c-18.408 38.93-29.684 105.963-29.684 178.056 0 57.282 6.874 111.107 19.355 151.562 9.263 30.021 19.723 46.429 28.609 53.486 3.566-11.021 13.825-19.004 25.893-19.004 2.875 0 5.707 0.462 8.38 1.337 20.696-35.957 33.798-107.678 33.798-187.381 0-57.605-6.893-111.53-19.408-151.841C281.331 55.971 265.878 41 255.767 41c-1.015 0-2.303 0.103-3.879 0.618 0.549 2.06 0.835 4.234 0.835 6.47 0 13.104-10.547 23.766-23.511 23.766C228.611 71.854 228.018 71.826 227.433 71.773z" fill="#00d1cd" data-fill-palette-color="accent"></path></g><g fill="#00d1cd" data-fill-palette-color="accent"><path d="M125.434 422.652c-12.128 0-21.776-3.565-28.678-10.597-16.327-16.636-13.297-48.346 8.765-91.702 20.1-39.502 53.882-84.399 95.124-126.421C269.006 124.279 343.705 77.48 386.524 77.48c12.156 0 21.818 3.565 28.72 10.598 16.312 16.62 13.28 48.27-8.768 91.529-20.039 39.319-53.813 84.271-95.103 126.573-33.708 34.156-69.046 63.239-102.232 84.145C185.729 405.073 152.203 422.652 125.434 422.652zM386.524 97.48c-37.208 0-107.774 45.423-171.605 110.46-89.981 91.684-121.153 172.515-103.89 190.105 3 3.057 7.847 4.606 14.404 4.606 36.878 0 107.47-45.431 171.667-110.48 39.879-40.86 72.409-84.075 91.557-121.646 20.03-39.301 19.494-61.122 12.313-68.438C397.971 99.03 393.11 97.48 386.524 97.48z" fill="#00d1cd" data-fill-palette-color="accent"></path></g><g fill="#00d1cd" data-fill-palette-color="accent"><path d="M386.525 422.652c-42.82 0-117.52-46.798-185.881-116.451-41.308-42.323-75.082-87.275-95.121-126.594-22.048-43.259-25.079-74.91-8.769-91.529 6.902-7.032 16.551-10.598 28.679-10.598 26.77 0 60.294 17.579 83.705 32.325 33.187 20.905 68.526 49.989 102.196 84.106 41.262 42.042 75.045 86.939 95.145 126.441 22.062 43.356 25.092 75.066 8.765 91.702C408.343 419.087 398.681 422.652 386.525 422.652zM125.434 97.48c-6.558 0-11.404 1.55-14.404 4.606-7.181 7.316-7.717 29.138 12.313 68.438 19.147 37.571 51.678 80.787 91.596 121.687 63.812 65.018 134.378 110.44 171.587 110.44 6.585 0 11.445-1.55 14.445-4.606 17.264-17.59-13.908-98.421-103.89-190.105C232.903 142.912 162.312 97.48 125.434 97.48z" fill="#00d1cd" data-fill-palette-color="accent"></path></g><g fill="#00d1cd" data-fill-palette-color="accent"><path d="M229.212 71.854c-12.963 0-23.51-10.662-23.51-23.766s10.547-23.766 23.51-23.766c12.964 0 23.511 10.661 23.511 23.766S242.176 71.854 229.212 71.854zM229.212 44.323c-1.936 0-3.51 1.689-3.51 3.766 0 2.077 1.574 3.766 3.51 3.766s3.511-1.689 3.511-3.766C232.723 46.012 231.147 44.323 229.212 44.323z" fill="#00d1cd" data-fill-palette-color="accent"></path></g><g fill="#00d1cd" data-fill-palette-color="accent"><path d="M443.048 239.417c-12.964 0-23.511-10.661-23.511-23.766s10.547-23.766 23.511-23.766c12.963 0 23.51 10.661 23.51 23.766S456.011 239.417 443.048 239.417zM443.048 211.886c-1.936 0-3.511 1.689-3.511 3.766s1.575 3.766 3.511 3.766 3.51-1.689 3.51-3.766S444.983 211.886 443.048 211.886z" fill="#00d1cd" data-fill-palette-color="accent"></path></g><g fill="#00d1cd" data-fill-palette-color="accent"><path d="M271.606 491c-15.019 0-27.237-12.365-27.237-27.563s12.219-27.563 27.237-27.563c14.764 0 27.237 12.622 27.237 27.563S286.37 491 271.606 491zM271.606 455.873c-4.53 0-7.237 3.846-7.237 7.563s2.707 7.563 7.237 7.563c3.788 0 7.237-3.605 7.237-7.563S275.395 455.873 271.606 455.873z" fill="#00d1cd" data-fill-palette-color="accent"></path></g><g fill="#00d1cd" data-fill-palette-color="accent"><path d="M70.815 315.367c-16.303 0-29.566-13.43-29.566-29.937s13.264-29.937 29.566-29.937c16.561 0 30.032 13.43 30.032 29.937S87.376 315.367 70.815 315.367zM70.815 275.494c-5.186 0-9.566 4.551-9.566 9.937s4.381 9.937 9.566 9.937c5.532 0 10.032-4.457 10.032-9.937S76.348 275.494 70.815 275.494z" fill="#00d1cd" data-fill-palette-color="accent"></path></g><g fill="#00d1cd" data-fill-palette-color="accent"><path d="M255.849 288.531c-20.835 0-37.785-17.324-37.785-38.619 0-20.767 17.304-38.311 37.785-38.311 21.002 0 38.088 17.186 38.088 38.311C293.937 271.207 276.851 288.531 255.849 288.531zM255.849 231.602c-9.641 0-17.785 8.385-17.785 18.311 0 10.092 8.145 18.619 17.785 18.619 9.805 0 18.088-8.526 18.088-18.619C273.937 239.987 265.653 231.602 255.849 231.602z" fill="#00d1cd" data-fill-palette-color="accent"></path></g><g fill="#00d1cd" data-fill-palette-color="accent"><path d="M71 441c-2.63 0-5.21-1.07-7.07-2.931C62.07 436.21 61 433.63 61 431s1.07-5.21 2.93-7.07c1.86-1.86 4.44-2.93 7.07-2.93s5.21 1.069 7.07 2.93C79.93 425.79 81 428.37 81 431s-1.07 5.21-2.93 7.069C76.21 439.93 73.63 441 71 441z" fill="#00d1cd" data-fill-palette-color="accent"></path></g><g fill="#00d1cd" data-fill-palette-color="accent"><path d="M141 461c-2.63 0-5.21-1.07-7.07-2.931C132.07 456.21 131 453.63 131 451s1.07-5.21 2.93-7.07c1.86-1.86 4.44-2.93 7.07-2.93s5.21 1.069 7.07 2.93c1.859 1.86 2.93 4.44 2.93 7.07s-1.07 5.21-2.93 7.069C146.21 459.93 143.63 461 141 461z" fill="#00d1cd" data-fill-palette-color="accent"></path></g><g fill="#00d1cd" data-fill-palette-color="accent"><path d="M141 61c-2.63 0-5.21-1.07-7.07-2.93C132.07 56.21 131 53.63 131 51c0-2.63 1.07-5.21 2.93-7.07 1.86-1.86 4.44-2.93 7.07-2.93s5.21 1.07 7.07 2.93C149.93 45.79 151 48.37 151 51c0 2.63-1.07 5.21-2.93 7.07C146.21 59.93 143.63 61 141 61z" fill="#00d1cd" data-fill-palette-color="accent"></path></g><g fill="#00d1cd" data-fill-palette-color="accent"><path d="M71 81c-2.63 0-5.21-1.07-7.07-2.93C62.07 76.21 61 73.63 61 71c0-2.63 1.07-5.21 2.93-7.07C65.79 62.07 68.37 61 71 61s5.21 1.07 7.07 2.93C79.93 65.79 81 68.37 81 71c0 2.63-1.07 5.21-2.93 7.07C76.21 79.93 73.63 81 71 81z" fill="#00d1cd" data-fill-palette-color="accent"></path></g><g fill="#00d1cd" data-fill-palette-color="accent"><path d="M451 131c-2.63 0-5.21-1.07-7.07-2.93S441 123.63 441 121c0-2.63 1.069-5.21 2.93-7.07 1.86-1.86 4.44-2.93 7.07-2.93s5.21 1.07 7.069 2.93c1.86 1.86 2.931 4.44 2.931 7.07 0 2.63-1.07 5.21-2.931 7.07C456.21 129.93 453.63 131 451 131z" fill="#00d1cd" data-fill-palette-color="accent"></path></g><g fill="#00d1cd" data-fill-palette-color="accent"><path d="M471 381c-2.63 0-5.21-1.07-7.07-2.931-1.86-1.859-2.93-4.439-2.93-7.069s1.069-5.21 2.93-7.07S468.37 361 471 361c2.64 0 5.21 1.069 7.069 2.93 1.86 1.86 2.931 4.44 2.931 7.07s-1.07 5.21-2.931 7.069C476.21 379.93 473.63 381 471 381z" fill="#00d1cd" data-fill-palette-color="accent"></path></g><g fill="#00d1cd" data-fill-palette-color="accent"><path d="M381 461c-2.63 0-5.21-1.07-7.07-2.931-1.86-1.859-2.93-4.439-2.93-7.069s1.069-5.21 2.93-7.07S378.37 441 381 441s5.21 1.069 7.069 2.93c1.86 1.86 2.931 4.44 2.931 7.07s-1.07 5.21-2.931 7.069C386.21 459.93 383.63 461 381 461z" fill="#00d1cd" data-fill-palette-color="accent"></path></g><g fill="#00d1cd" data-fill-palette-color="accent"><path d="M451 81c-2.63 0-5.21-1.07-7.07-2.93S441 73.63 441 71c0-2.63 1.069-5.21 2.93-7.07 1.86-1.86 4.44-2.93 7.07-2.93s5.21 1.07 7.069 2.93C459.93 65.79 461 68.37 461 71c0 2.63-1.07 5.21-2.931 7.07C456.21 79.93 453.63 81 451 81z" fill="#00d1cd" data-fill-palette-color="accent"></path></g></g></g></svg></g></svg></g><g></g></svg></g><defs></defs></svg><rect width="195.6855754571314" height="247.2" fill="none" stroke="none" visibility="hidden"></rect></g></svg></g></svg>